<svg xmlns="http://www.w3.org/2000/svg" width="27" height="24" viewBox="0 0 27 24">
    <g fill="none">
        <g fill="#FFF" stroke="#263776" stroke-width=".714">
            <path d="M7.51 0c-.9 0-1.72.54-2.074 1.366L2.64 7.895H1.13c-.353 0-.684.164-.899.445-.212.28-.284.643-.191.982l2.887 10.45c.27.975 1.164 1.657 2.175 1.657H19.71c1.01 0 1.904-.681 2.172-1.655l2.888-10.45c.094-.34.023-.705-.19-.984-.214-.281-.546-.445-.898-.445h-1.509l-2.8-6.527h.003C19.022.538 18.199 0 17.3 0H7.509zm0 2.256h9.79l2.417 5.639H5.095l2.414-5.64zm-4.9 7.894h19.592l-2.494 9.023H5.102L2.61 10.15z" transform="translate(1 1)"/>
            <path d="M7.895 12.406c-.623 0-1.128.505-1.128 1.128v2.255c0 .623.505 1.128 1.128 1.128.622 0 1.128-.505 1.128-1.128v-2.255c0-.623-.506-1.128-1.128-1.128zM12.406 12.406c-.623 0-1.128.505-1.128 1.128v2.255c0 .623.505 1.128 1.128 1.128.623 0 1.128-.505 1.128-1.128v-2.255c0-.623-.505-1.128-1.128-1.128zM16.917 12.406c-.622 0-1.128.505-1.128 1.128v2.255c0 .623.506 1.128 1.128 1.128.623 0 1.128-.505 1.128-1.128v-2.255c0-.623-.505-1.128-1.128-1.128z" transform="translate(1 1)"/>
        </g>
        <g>
            <path fill="#263776" d="M6 0C2.691 0 0 2.691 0 6s2.691 6 6 6 6-2.692 6-6-2.691-6-6-6z" transform="translate(1 1) translate(13 11)"/>
            <path fill="#FFF" d="M6 11.07C3.204 11.07.93 8.796.93 6 .93 3.204 3.204.93 6 .93c2.796 0 5.07 2.274 5.07 5.07 0 2.796-2.274 5.07-5.07 5.07z" transform="translate(1 1) translate(13 11)"/>
            <path fill="#263776" stroke="#263776" stroke-width=".3" d="M8.324 5.493h-1.86V3.634c0-.256-.207-.464-.464-.464s-.465.208-.465.464v1.86H3.676c-.257 0-.465.208-.465.464 0 .257.208.465.465.465h1.86v1.859c0 .257.207.465.464.465s.465-.208.465-.465V6.423h1.859c.257 0 .465-.208.465-.465 0-.256-.208-.465-.465-.465z" transform="translate(1 1) translate(13 11)"/>
        </g>
    </g>
</svg>
