<svg xmlns="http://www.w3.org/2000/svg" width="31" height="23" viewBox="0 0 31 23">
    <g fill="#4A4A4A" stroke="#4A4A4A" stroke-width=".2">
        <path d="M8.705 10.538c1.733 0 3.139-1.405 3.139-3.138 0-1.733-1.406-3.138-3.139-3.138-1.733 0-3.138 1.405-3.138 3.138.002 1.732 1.406 3.136 3.138 3.138zm0-5.056c1.063 0 1.924.861 1.924 1.924S9.768 9.33 8.705 9.33 6.781 8.47 6.781 7.406s.861-1.924 1.924-1.924zM8.705 11.698c-1.284-.01-2.516.506-3.412 1.426-.91.93-1.408 2.192-1.408 3.564.001.335.272.606.607.607h8.426c.335-.001.606-.272.607-.607 0-1.372-.498-2.635-1.408-3.564-.895-.92-2.128-1.436-3.412-1.426zM5.142 16.08c.104-.794.461-1.533 1.02-2.107.671-.68 1.587-1.062 2.543-1.062.956 0 1.872.383 2.544 1.062.557.575.914 1.313 1.02 2.107H5.142z" transform="translate(1 1)"/>
        <path d="M26.103.036H3.035C1.36.037.001 1.396 0 3.072V18.49c0 1.676 1.36 3.034 3.035 3.035h23.068c1.676 0 3.035-1.36 3.036-3.035V3.07c-.001-1.675-1.36-3.034-3.036-3.035zm1.821 18.455c-.002 1.004-.816 1.818-1.82 1.821H3.034c-1.004-.003-1.818-.817-1.82-1.821V3.07c.002-1.004.816-1.818 1.82-1.82h23.068c1.005.002 1.819.816 1.821 1.82v15.42z" transform="translate(1 1)"/>
        <path d="M24.61 10.174h-7.072c-.335 0-.607.272-.607.607 0 .336.272.607.607.607h7.072c.335 0 .607-.271.607-.607 0-.335-.272-.607-.607-.607zM24.61 6.29h-7.072c-.335 0-.607.27-.607.606 0 .336.272.607.607.607h7.072c.335 0 .607-.271.607-.607 0-.335-.272-.607-.607-.607z" transform="translate(1 1)"/>
    </g>
</svg>
