<svg xmlns="http://www.w3.org/2000/svg" width="25" height="23" viewBox="0 0 25 23">
    <g fill="none">
        <path fill="#E31818" d="M12.457 22.165c-.355 0-.697-.128-.963-.362-1.007-.88-1.977-1.707-2.833-2.436l-.005-.004c-2.51-2.14-4.677-3.986-6.185-5.806C.785 11.523 0 9.594 0 7.487 0 5.44.702 3.552 1.976 2.17 3.266.77 5.036 0 6.96 0c1.438 0 2.755.455 3.914 1.351.585.453 1.116 1.007 1.583 1.653.467-.646.997-1.2 1.583-1.653C15.199.455 16.516 0 17.954 0c1.924 0 3.694.77 4.983 2.17 1.275 1.382 1.976 3.27 1.976 5.317 0 2.107-.785 4.036-2.47 6.07-1.508 1.82-3.676 3.667-6.185 5.805-.858.731-1.83 1.56-2.838 2.441-.267.234-.609.362-.963.362z"/>
        <path fill="#FFE9E9" d="M6.96 1.46c-1.512 0-2.9.603-3.91 1.698-1.026 1.112-1.59 2.65-1.59 4.33 0 1.771.658 3.356 2.135 5.138 1.427 1.722 3.55 3.531 6.008 5.626l.004.004c.86.732 1.834 1.563 2.848 2.449 1.02-.888 1.995-1.72 2.856-2.453 2.458-2.095 4.58-3.904 6.008-5.626 1.477-1.782 2.135-3.367 2.135-5.139 0-1.68-.564-3.217-1.59-4.329-1.01-1.095-2.399-1.699-3.91-1.699-1.107 0-2.124.352-3.022 1.047-.8.618-1.357 1.4-1.684 1.948-.168.282-.464.45-.791.45-.328 0-.624-.168-.792-.45-.326-.547-.883-1.33-1.684-1.948-.897-.695-1.914-1.047-3.021-1.047z"/>
    </g>
</svg>
