<svg xmlns="http://www.w3.org/2000/svg" width="40" height="30" viewBox="0 0 40 30">
    <g fill="none" fill-rule="nonzero">
        <path fill="#2A2A2A" d="M6.667 14.167A4.18 4.18 0 0 0 2.5 18.333 4.18 4.18 0 0 0 6.667 22.5a4.18 4.18 0 0 0 4.166-4.167 4.18 4.18 0 0 0-4.166-4.166zm26.666 0a4.18 4.18 0 0 0-4.166 4.166 4.18 4.18 0 0 0 4.166 4.167 4.18 4.18 0 0 0 4.167-4.167 4.18 4.18 0 0 0-4.167-4.166zM6.667 15.833c1.39 0 2.5 1.11 2.5 2.5s-1.11 2.5-2.5 2.5-2.5-1.11-2.5-2.5 1.11-2.5 2.5-2.5zm26.666 0c1.39 0 2.5 1.11 2.5 2.5s-1.11 2.5-2.5 2.5-2.5-1.11-2.5-2.5 1.11-2.5 2.5-2.5zm-16.666 2.5c-2.747 0-5 2.254-5 5v1.644a4.03 4.03 0 0 0-2.408-.81H4.074A4.09 4.09 0 0 0 0 28.24V30h1.667v-1.76a2.41 2.41 0 0 1 2.407-2.407H9.259a2.41 2.41 0 0 1 2.408 2.408V30h1.666v-6.667A3.338 3.338 0 0 1 16.667 20h6.666a3.338 3.338 0 0 1 3.334 3.333V30h1.666v-1.76a2.41 2.41 0 0 1 2.408-2.407H35.926a2.41 2.41 0 0 1 2.407 2.408V30H40v-1.76a4.09 4.09 0 0 0-4.074-4.073H30.741a4.03 4.03 0 0 0-2.408.81v-1.644c0-2.746-2.253-5-5-5h-6.666z"/>
        <path fill="#21409a" d="M19.987.822a.833.833 0 0 0-.82.845v2.5a.833.833 0 1 0 1.666 0v-2.5a.833.833 0 0 0-.846-.845zM12.92 3.755a.833.833 0 0 0-.58 1.43l1.768 1.768a.833.833 0 1 0 1.178-1.178L13.52 4.007a.833.833 0 0 0-.6-.252zM27.054 3.755a.833.833 0 0 0-.573.252l-1.767 1.768a.833.833 0 1 0 1.178 1.178l1.768-1.767a.833.833 0 0 0-.606-1.431zM20 6.667c2.752 0 5 2.248 5 5 0 2.751-2.248 5-5 5s-5-2.249-5-5c0-2.752 2.248-5 5-5zm0 1.666a3.32 3.32 0 0 0-3.333 3.334A3.32 3.32 0 0 0 20 15a3.32 3.32 0 0 0 3.333-3.333A3.32 3.32 0 0 0 20 8.333zM10 10.833a.833.833 0 1 0 0 1.667h2.5a.833.833 0 1 0 0-1.667H10zM27.5 10.833a.833.833 0 1 0 0 1.667H30a.833.833 0 1 0 0-1.667h-2.5z"/>
    </g>
</svg>
