<svg xmlns="http://www.w3.org/2000/svg" width="18" height="25" viewBox="0 0 18 25">
    <path fill="#4A4A4A" stroke="#F8F8F8" stroke-width=".3" d="M14.364 1.05H3.677c-1.457 0-2.642 1.186-2.642 2.643v17.614c0 1.457 1.185 2.642 2.642 2.642h10.687c1.456 0 2.642-1.185 2.642-2.642V3.693c0-1.457-1.186-2.643-2.642-2.643zM2.797 3.693c0-.486.395-.881.88-.881h10.687c.485 0 .88.395.88.88v.881H2.797v-.88zm0 2.642h12.447v12.33H2.797V6.335zm12.447 14.972c0 .486-.395.881-.88.881H3.677c-.485 0-.88-.395-.88-.88v-.881h12.447v.88z"/>
</svg>
