<svg xmlns="http://www.w3.org/2000/svg" width="32" height="30" viewBox="0 0 32 30">
    <g fill="none" fill-rule="nonzero">
        <path fill="#000" d="M2.727 0v23.864h.682c6.637 0 11.967 2.655 11.967 2.655l.306.152.306-.152s5.33-2.655 11.967-2.655h.681V0h-.681c-6.71 0-11.836 2.469-12.273 2.685C15.245 2.469 10.118 0 3.409 0h-.682zm1.364 1.425C9.713 1.585 14.08 3.44 15 3.857v21.032c-1.452-.626-5.532-2.184-10.91-2.328V1.425zm23.182 0V22.56c-5.378.144-9.458 1.702-10.91 2.328V3.857c.92-.416 5.287-2.272 10.91-2.432z"/>
        <path fill="#21409a" d="M0 3.41v23.18h.682c8.722 0 14.723 2.67 14.723 2.67l.277.122.277-.122s6-2.67 14.723-2.67h.682V3.41H30v21.865c-8.318.141-13.937 2.482-14.318 2.648-.381-.166-6-2.507-14.318-2.648V3.41H0z"/>
    </g>
</svg>
