<svg xmlns="http://www.w3.org/2000/svg" width="41" height="30" viewBox="0 0 41 30">
    <g fill="none">
        <path fill="#2A2A2A" d="M2.306 0C1.042 0 0 1.042 0 2.306v21.208c0 1.346 1.086 2.432 2.432 2.432h3.32C6.138 28.246 8.137 30 10.54 30c2.403 0 4.402-1.755 4.788-4.054h7.5c.599 0 1.134-.253 1.546-.634.421.371.96.628 1.57.634h.888c.386 2.3 2.385 4.054 4.789 4.054 2.676 0 4.864-2.189 4.864-4.865s-2.188-4.865-4.864-4.865c-2.404 0-4.403 1.755-4.79 4.054h-.886c-.152 0-.383-.104-.557-.278-.175-.175-.254-.384-.254-.532V8.108c0-.304.507-.81.81-.81h6.487c.637 0 1.533.68 2.154 1.418.006.01.02.016.025.026l.127.177h-3.927c-1.292 0-2.433 1.045-2.433 2.432v3.244c0 .674.304 1.266.735 1.697.43.431 1.023.735 1.698.735h8.108v6.487c0 .304-.507.81-.81.81h-1.623v1.622h1.622c1.346 0 2.433-1.086 2.433-2.432v-7.805c0-1.856-1.293-3.496-1.293-3.496h-.025l-3.345-4.46v-.025l-.025-.025c-.747-.903-1.869-2.027-3.42-2.027h-6.487c-.288 0-.554.06-.81.152V2.356c0-1.244-.983-2.356-2.281-2.356H2.305zm0 1.622h20.549c.348 0 .659.335.659.734V23.64c0 .38-.301.684-.685.684h-7.5c-.386-2.3-2.385-4.054-4.788-4.054-2.404 0-4.403 1.755-4.79 4.054H2.433c-.304 0-.81-.51-.81-.81V2.306c0-.38.297-.684.684-.684zM30.81 10.54h5.143l1.977 2.635s.735 1.257.887 2.23H30.81c-.136 0-.355-.102-.532-.28-.178-.177-.279-.395-.279-.531V11.35c0-.408.481-.81.81-.81zM10.54 21.89c1.802 0 3.243 1.442 3.243 3.244 0 1.802-1.441 3.243-3.243 3.243-1.803 0-3.244-1.44-3.244-3.243 0-1.802 1.441-3.243 3.244-3.243zm21.08 0c1.803 0 3.244 1.442 3.244 3.244 0 1.802-1.441 3.243-3.243 3.243-1.803 0-3.244-1.44-3.244-3.243 0-1.802 1.441-3.243 3.244-3.243z"/>
        <path fill="#263776" d="M7.312 13.745c-.02-2.745-.015-3.935.012-4.107.023-.134.054-.315.061-.397.031-.263.116-.603.147-.603.015 0 .03-.03.03-.065 0-.09.274-.664.39-.814.34-.457.586-.673.999-.888.096-.048.204-.108.239-.13.038-.025.1-.043.142-.043.043 0 .081-.017.089-.034.008-.022.208-.065.447-.1L10.3 6.5v7h-.305c-.17 0-.316.017-.327.039-.012.017-.097.047-.193.06-.185.03-.528.194-.775.366-.173.125-.57.556-.725.785-.123.185-.335.663-.335.75 0 .038-.016.069-.035.069-.035 0-.054.069-.123.517-.023.155-.066.336-.093.405-.038.1-.054.41-.077-2.746zM15.324 16.35c-.051-.256-.012-7.106.039-7.302.027-.094.066-.26.093-.372.028-.115.063-.205.082-.205.016 0 .031-.025.031-.055 0-.162.32-.679.625-1.012.316-.342.542-.49 1.15-.751.106-.043.917-.175.94-.15.008.009.016 1.793.016 3.962v2.94h-.308c-.172 0-.32.017-.332.038-.011.018-.097.047-.187.056-.18.026-.811.324-.811.384 0 .017-.024.034-.047.034-.11 0-.772.803-.772.927 0 .03-.012.055-.028.055-.027 0-.129.222-.207.448-.015.047-.05.141-.074.21-.054.149-.117.43-.156.73l-.027.213-.027-.15zM11.307 13.655c-.012-2.116-.008-3.995.008-4.172.042-.392.116-.729.228-1 .047-.112.086-.224.086-.246 0-.026.011-.047.03-.047.016 0 .06-.074.098-.164.039-.086.12-.229.186-.31.066-.082.132-.169.144-.194.015-.026.124-.134.24-.237.117-.108.221-.203.233-.216.023-.026.151-.103.536-.315.073-.038.155-.073.186-.073.03 0 .085-.017.124-.043.035-.022.244-.069.466-.1.392-.055.4-.055.419.031.007.052.011 1.845.007 3.991l-.011 2.901-.31.026c-.319.03-.64.095-.777.164-.295.142-.523.28-.523.31 0 .022-.024.039-.055.039-.093 0-.55.53-.737.853-.097.173-.179.324-.179.337 0 .013-.027.094-.062.18-.035.091-.077.199-.093.246-.058.16-.124.475-.143.681-.012.112-.031.203-.047.203-.015 0-.043-.733-.054-2.845z"/>
    </g>
</svg>
