<svg xmlns="http://www.w3.org/2000/svg" width="24" height="19" viewBox="0 0 24 19">
    <path fill="#4A4A4A" stroke="#4A4A4A" stroke-width=".2" d="M21.488 1.042H3.12C1.951 1.042 1 1.992 1 3.162v12.716c0 1.169.95 2.12 2.12 2.12h18.368c1.17 0 2.12-.951 2.12-2.12V3.161c0-1.169-.95-2.12-2.12-2.12zm0 1.413c.096 0 .188.02.271.054l-9.455 8.195L2.849 2.51c.083-.034.174-.054.27-.054h18.37zm0 14.13H3.12c-.39 0-.706-.317-.706-.707V4.002l9.428 8.171c.133.115.298.173.463.173.165 0 .33-.058.463-.173l9.428-8.17v11.875c0 .39-.317.706-.707.706h0z"/>
</svg>
