<svg xmlns="http://www.w3.org/2000/svg" width="20" height="18" viewBox="0 0 20 18">
    <g fill="#E31818">
        <path d="M9.764 17.373c-.278 0-.546-.1-.755-.284-.79-.69-1.55-1.338-2.22-1.91l-.004-.003c-1.967-1.676-3.666-3.124-4.848-4.55C.615 9.032 0 7.52 0 5.868 0 4.264.55 2.784 1.55 1.7 2.56.604 3.946 0 5.454 0c1.127 0 2.16.356 3.068 1.06.459.354.874.788 1.24 1.294.367-.506.782-.94 1.241-1.295C11.913.356 12.945 0 14.072 0c1.508 0 2.895.604 3.906 1.7.999 1.084 1.55 2.564 1.55 4.168 0 1.652-.616 3.164-1.938 4.758-1.182 1.426-2.88 2.874-4.847 4.55-.672.573-1.434 1.222-2.225 1.913-.208.183-.477.284-.754.284z"/>
        <path d="M5.455 1.144c-1.185 0-2.273.473-3.065 1.331-.804.872-1.246 2.077-1.246 3.393 0 1.39.516 2.632 1.673 4.028 1.119 1.35 2.783 2.768 4.71 4.41l.003.003c.674.574 1.437 1.225 2.232 1.92.8-.697 1.564-1.348 2.239-1.923 1.926-1.642 3.59-3.06 4.709-4.41 1.157-1.396 1.673-2.639 1.673-4.028 0-1.316-.442-2.52-1.246-3.393-.792-.858-1.88-1.331-3.065-1.331-.868 0-1.665.276-2.368.82-.627.485-1.064 1.098-1.32 1.527-.132.22-.364.353-.62.353-.257 0-.489-.132-.62-.353-.257-.429-.693-1.042-1.32-1.527-.704-.544-1.501-.82-2.369-.82z"/>
    </g>
</svg>
