<svg xmlns="http://www.w3.org/2000/svg" width="31" height="30" viewBox="0 0 31 30">
    <g fill="none" fill-rule="nonzero">
        <path fill="#2A2A2A" d="M.542.619A.618.618 0 0 0 0 1.238v23.52a.615.615 0 0 0 .348.561l7.428 3.714c.171.082.37.082.541 0l7.176-3.598 7.776 3.598c.174.077.375.07.541-.02L30.62 25.3a.62.62 0 0 0 .329-.542V1.238a.617.617 0 0 0-.91-.542l-6.537 3.56L15.725.676a.617.617 0 0 0-.522 0L8.046 4.255.89.677A.62.62 0 0 0 .542.619zm15.55 1.567l6.81 3.152v22.167l-6.81-3.134V2.186zm-1.237.058V24.37l-6.19 3.095V5.338l6.19-3.094zm14.855.038v22.109l-5.57 3.036V5.32l5.57-3.037z"/>
        <path fill="#21409a" stroke="#FFF" stroke-width=".909" d="M1.692 2.98v21.11l5.28 2.64V5.62l-5.28-2.64z"/>
    </g>
</svg>
