<svg xmlns="http://www.w3.org/2000/svg" width="20" height="23" viewBox="0 0 20 23">
    <g fill="#4A4A4A">
        <circle cx="14.67" cy="15.017" r="1"/>
        <path d="M18.576 15.712c.48 0 .868-.389.868-.868v-3.212c0-1.915-1.557-3.472-3.472-3.472H14.93V5.098C14.929 2.288 12.592 0 9.72 0 6.849 0 4.512 2.287 4.512 5.098V8.16h-1.04C1.558 8.16 0 9.717 0 11.632v7.118c0 1.915 1.558 3.472 3.472 3.472h12.5c1.915 0 3.472-1.557 3.472-3.472 0-.48-.388-.868-.868-.868-.479 0-.868.389-.868.868 0 .957-.778 1.736-1.736 1.736h-12.5c-.957 0-1.736-.779-1.736-1.736v-7.118c0-.957.779-1.736 1.736-1.736h12.5c.958 0 1.736.779 1.736 1.736v3.212c0 .48.389.868.868.868zM13.193 8.16H6.248V5.098c0-1.854 1.558-3.362 3.473-3.362 1.914 0 3.472 1.508 3.472 3.362V8.16z"/>
        <circle cx="8.116" cy="15.017" r="1"/>
        <circle cx="4.861" cy="15.017" r="1"/>
        <circle cx="11.372" cy="15.017" r="1"/>
    </g>
</svg>
